<svg width="14" height="20" viewBox="0 0 14 20" fill="none" xmlns="http://www.w3.org/2000/svg">
<path d="M6.72489 20H6.59389L6.57205 19.9782C6.20087 19.738 1.96507 17.1616 0.0436681 16.0044L0 15.9825V15.917C0 15.8515 0.414847 14.0611 1.28821 10.2838C1.63755 8.75546 2.00873 7.22707 2.24891 6.11354L2.27074 6.0917C3.0131 5.02183 3.75546 3.9738 4.49782 2.92576C5.19651 1.96507 5.87336 1.00437 6.55022 0.0436681L6.57205 0H6.74673L6.76856 0.0436681C7.92576 1.68122 9.08297 3.31878 10.2402 4.95633L11.0699 6.13537C11.7686 9.01747 13.3188 15.7642 13.3406 15.917V15.9825L13.2969 16.0044C11.5066 17.0961 7.0524 19.7817 6.74673 19.9782L6.72489 20ZM1.0262 16.0262C2.13974 16.6812 4.69432 18.2314 6.31004 19.214L5.28384 16.0262H1.0262ZM8.03493 16.0262L7.0524 19.214C7.66376 18.8428 8.42795 18.3624 9.21397 17.9039C10.4148 17.1834 11.6376 16.4192 12.3144 16.0262H8.03493ZM5.80786 16.0262L6.68122 18.7555L7.53275 16.0262H5.80786ZM5.65502 15.524H7.68559L9.45415 9.95633L6.65939 5.10917L3.9083 9.95633L5.65502 15.524ZM8.18777 15.524H12.5983L9.75983 10.5459L8.18777 15.524ZM0.720524 15.524H5.10917L3.55895 10.5459L0.720524 15.524ZM9.97817 9.89083L12.4891 14.2795C12.0524 12.4017 11.3319 9.21397 10.8515 7.16157L9.97817 9.89083ZM2.53275 7.20524C2.13974 8.88646 1.57205 11.3319 1.15721 13.1878L0.917031 14.2576L3.36245 9.91266L2.53275 7.20524ZM6.9214 4.54148L9.65066 9.32314L10.5895 6.31004L9.43231 4.65066C8.58079 3.47162 7.75109 2.27074 6.9214 1.0917V4.54148ZM2.77293 6.31004L3.71179 9.30131L6.41921 4.54148V1.0917C5.80786 1.94323 5.21834 2.81659 4.60699 3.66812C3.99563 4.54148 3.38428 5.43668 2.77293 6.31004Z" fill="black"/>
</svg>
